<?xml version="1.0" encoding="UTF-8" standalone="no"?>
<!-- Generator: Adobe Illustrator 15.0.2, SVG Export Plug-In . SVG Version: 6.00 Build 0)  -->

<svg
   xmlns:dc="http://purl.org/dc/elements/1.1/"
   xmlns:cc="http://creativecommons.org/ns#"
   xmlns:rdf="http://www.w3.org/1999/02/22-rdf-syntax-ns#"
   xmlns:svg="http://www.w3.org/2000/svg"
   xmlns="http://www.w3.org/2000/svg"
   xmlns:sodipodi="http://sodipodi.sourceforge.net/DTD/sodipodi-0.dtd"
   xmlns:inkscape="http://www.inkscape.org/namespaces/inkscape"
   version="1.1"
   x="0px"
   y="0px"
   width="726.34302"
   height="207.09"
   viewBox="0 0 726.343 207.09"
   enable-background="new 0 0 971.343 375.09"
   xml:space="preserve"
   id="svg3506"
   inkscape:version="0.92.4 (5da689c313, 2019-01-14)"
   sodipodi:docname="HELMHOLTZ_LOGO.svg"><metadata
     id="metadata3636"><rdf:RDF><cc:Work
         rdf:about=""><dc:format>image/svg+xml</dc:format><dc:type
           rdf:resource="http://purl.org/dc/dcmitype/StillImage" /><dc:title></dc:title></cc:Work></rdf:RDF></metadata><defs
     id="defs3634" /><sodipodi:namedview
     pagecolor="#ffffff"
     bordercolor="#666666"
     borderopacity="1"
     objecttolerance="10"
     gridtolerance="10"
     guidetolerance="10"
     inkscape:pageopacity="0"
     inkscape:pageshadow="2"
     inkscape:window-width="1920"
     inkscape:window-height="1017"
     id="namedview3632"
     showgrid="false"
     fit-margin-top="-70"
     fit-margin-bottom="-70"
     fit-margin-left="-110"
     fit-margin-right="-110"
     inkscape:zoom="1.5267521"
     inkscape:cx="375.67151"
     inkscape:cy="107.72022"
     inkscape:window-x="-8"
     inkscape:window-y="-8"
     inkscape:window-maximized="1"
     inkscape:current-layer="svg3506" /><g
     id="Ebene_1"
     transform="translate(-121.78973,-83.59021)"><g
       id="g3509"><path
         d="M 169.004,119.457 V 85.039 h 16.32 v 85.039 h -16.32 v -34.301 h -29.145 v 34.301 H 123.548 V 85.039 h 16.311 v 34.418 z"
         id="path3511"
         inkscape:connector-curvature="0"
         style="fill:#005aa0" /><path
         d="m 257.218,85.039 v 16.311 h -37.31 v 18.107 h 32.387 v 16.32 h -32.387 v 17.99 h 37.31 v 16.311 h -45.582 c -0.723,0 -1.445,-0.244 -1.924,-0.84 l -5.274,-5.273 c -0.596,-0.479 -0.84,-1.201 -0.84,-1.925 V 93.067 c 0,-0.713 0.244,-1.436 0.84,-1.914 l 5.274,-5.274 c 0.479,-0.488 1.201,-0.84 1.924,-0.84 z"
         id="path3513"
         inkscape:connector-curvature="0"
         style="fill:#005aa0" /><path
         d="m 282.445,170.078 c -0.723,0 -1.445,-0.244 -1.924,-0.84 l -5.274,-5.273 c -0.605,-0.479 -0.84,-1.201 -0.84,-1.925 V 85.039 h 16.311 v 68.729 h 35.502 v 16.311 h -43.775 z"
         id="path3515"
         inkscape:connector-curvature="0"
         style="fill:#005aa0" /><path
         d="m 413.809,85.039 v 85.039 h -16.311 v -47.017 l -13.313,27.825 c -0.479,0.957 -1.436,1.563 -2.402,1.563 h -9.591 c -1.085,0 -2.042,-0.605 -2.521,-1.563 l -13.312,-27.825 v 47.017 H 340.05 V 85.039 h 16.311 l 20.627,43.179 20.511,-43.179 z"
         id="path3517"
         inkscape:connector-curvature="0"
         style="fill:#005aa0" /><path
         d="M 476.472,119.457 V 85.039 h 16.32 v 85.039 h -16.32 v -34.301 h -29.144 v 34.301 H 431.017 V 85.039 h 16.311 v 34.418 z"
         id="path3519"
         inkscape:connector-curvature="0"
         style="fill:#005aa0" /><path
         d="m 558.328,89.112 8.516,8.399 c 2.52,2.52 3.956,5.996 3.956,9.591 v 40.903 c 0,3.604 -1.437,7.081 -3.956,9.601 l -8.516,8.517 c -2.521,2.52 -5.998,3.955 -9.602,3.955 h -19.064 c -3.604,0 -7.198,-1.318 -9.719,-3.955 l -8.398,-8.517 c -2.521,-2.52 -3.956,-5.997 -3.956,-9.601 v -40.903 c 0,-3.595 1.436,-7.071 3.956,-9.591 l 8.398,-8.399 c 2.638,-2.638 6.114,-4.073 9.719,-4.073 h 19.064 c 3.604,0 6.964,1.553 9.602,4.073 z m -3.839,56.736 v -36.46 c 0,-0.723 -0.361,-1.445 -0.84,-1.924 l -5.157,-5.274 c -0.605,-0.479 -1.318,-0.84 -2.041,-0.84 H 531.82 c -0.723,0 -1.318,0.361 -1.924,0.84 l -5.156,5.274 c -0.597,0.479 -0.841,1.201 -0.841,1.924 v 36.46 c 0,0.723 0.244,1.318 0.841,1.924 l 5.156,5.156 c 0.605,0.596 1.201,0.84 1.924,0.84 h 14.631 c 0.723,0 1.436,-0.244 2.041,-0.84 l 5.157,-5.156 c 0.479,-0.606 0.84,-1.202 0.84,-1.924 z"
         id="path3521"
         inkscape:connector-curvature="0"
         style="fill:#005aa0" /><path
         d="m 593.273,170.078 c -0.723,0 -1.445,-0.244 -1.925,-0.84 l -5.273,-5.273 c -0.606,-0.479 -0.841,-1.201 -0.841,-1.925 V 85.039 h 16.312 v 68.729 h 35.502 v 16.311 h -43.775 z"
         id="path3523"
         inkscape:connector-curvature="0"
         style="fill:#005aa0" /><path
         d="M 635.876,101.35 V 85.039 h 61.413 v 16.311 h -22.551 v 68.729 H 658.427 V 101.35 Z"
         id="path3525"
         inkscape:connector-curvature="0"
         style="fill:#005aa0" /><path
         d="m 760.432,85.879 5.273,5.274 c 0.479,0.479 0.841,1.201 0.841,1.914 v 4.2 l -35.747,56.5 h 35.268 v 16.311 H 717.37 c -0.723,0 -1.445,-0.244 -1.924,-0.84 l -5.273,-5.273 c -0.479,-0.479 -0.84,-1.201 -0.84,-1.925 v -4.912 L 744.6,101.35 H 708.854 V 85.039 h 49.654 c 0.722,0 1.445,0.352 1.924,0.84 z"
         id="path3527"
         inkscape:connector-curvature="0"
         style="fill:#005aa0" /></g><g
       id="g3529"><path
         d="m 146.139,214.749 h -5.229 c -0.12,-1.486 -0.564,-2.691 -1.334,-3.614 -1.128,-1.333 -2.76,-2 -4.896,-2 -1.52,0 -2.803,0.368 -3.844,1.103 -1.231,0.889 -1.846,2.025 -1.846,3.409 0,1.282 0.648,2.325 1.947,3.128 0.803,0.496 2.785,1.41 5.947,2.743 2.717,1.145 4.572,2.008 5.563,2.589 3.128,1.863 4.691,4.589 4.691,8.178 0,3.435 -1.299,6.126 -3.896,8.075 -2.068,1.555 -4.768,2.332 -8.101,2.332 -4.888,0 -8.442,-1.589 -10.664,-4.768 -1.248,-1.777 -1.938,-4.179 -2.075,-7.203 h 5.254 c 0.188,2.188 0.787,3.845 1.795,4.973 1.35,1.521 3.281,2.281 5.793,2.281 1.846,0 3.375,-0.452 4.589,-1.358 1.163,-0.872 1.743,-2.017 1.743,-3.435 0,-1.504 -0.761,-2.777 -2.281,-3.82 -0.82,-0.563 -2.734,-1.486 -5.742,-2.769 -3.572,-1.538 -5.973,-2.871 -7.204,-3.999 -1.862,-1.743 -2.794,-3.896 -2.794,-6.46 0,-3.246 1.29,-5.759 3.871,-7.536 2.085,-1.452 4.563,-2.18 7.434,-2.18 4.238,0 7.393,1.445 9.459,4.333 1.077,1.486 1.683,3.486 1.82,5.998 z"
         id="path3531"
         inkscape:connector-curvature="0"
         style="fill:#8cb423" /><path
         d="m 153.986,205.06 h 7.051 c 4.563,0 7.834,0.333 9.817,0.999 2.17,0.719 3.819,2.068 4.948,4.051 0.938,1.675 1.409,3.589 1.409,5.742 0,3.145 -0.948,5.657 -2.846,7.537 -1.675,1.657 -4.101,2.614 -7.28,2.871 -1.4,0.102 -3.188,0.153 -5.357,0.153 h -2.333 v 13.638 h -5.409 z m 5.41,16.688 h 2.308 c 2.99,0 5.092,-0.171 6.306,-0.514 1.265,-0.375 2.214,-1.118 2.846,-2.229 0.513,-0.889 0.77,-1.939 0.77,-3.153 0,-2.666 -0.975,-4.435 -2.923,-5.307 -1.281,-0.563 -3.632,-0.846 -7.049,-0.846 h -2.257 v 12.049 z"
         id="path3533"
         inkscape:connector-curvature="0"
         style="fill:#8cb423" /><path
         d="m 188.264,240.051 h -5.46 V 205.06 h 5.46 z"
         id="path3535"
         inkscape:connector-curvature="0"
         style="fill:#8cb423" /><path
         d="m 193.6,205.06 h 23.764 v 4.64 h -9.203 v 30.352 h -5.408 V 209.7 H 193.6 Z"
         id="path3537"
         inkscape:connector-curvature="0"
         style="fill:#8cb423" /><path
         d="m 221.084,205.06 h 22.047 v 3.794 l -17.022,26.531 h 16.586 v 4.666 h -22.969 v -4.229 l 16.843,-26.173 h -15.484 v -4.589 z"
         id="path3539"
         inkscape:connector-curvature="0"
         style="fill:#8cb423" /><path
         d="m 254.336,219.594 h 14.048 v 4.666 h -14.048 v 11.125 h 15.766 v 4.666 H 248.928 V 205.06 h 20.713 v 4.64 h -15.305 z"
         id="path3541"
         inkscape:connector-curvature="0"
         style="fill:#8cb423" /><path
         d="m 276.412,205.06 h 5.818 l 15.434,26.737 V 205.06 h 5.126 v 34.991 h -5.589 l -15.637,-26.686 v 26.686 h -5.152 z"
         id="path3543"
         inkscape:connector-curvature="0"
         style="fill:#8cb423" /><path
         d="m 317.046,219.594 h 14.048 v 4.666 h -14.048 v 15.791 h -5.409 V 205.06 h 20.713 v 4.64 h -15.304 z"
         id="path3545"
         inkscape:connector-curvature="0"
         style="fill:#8cb423" /><path
         d="m 351.246,204.418 c 4.153,0 7.615,1.471 10.382,4.41 3.128,3.298 4.691,7.869 4.691,13.714 0,5.845 -1.563,10.425 -4.691,13.74 -2.767,2.939 -6.221,4.409 -10.354,4.409 -4.206,0 -7.684,-1.47 -10.434,-4.409 -3.129,-3.315 -4.691,-7.98 -4.691,-13.996 0,-2.58 0.418,-5.153 1.255,-7.716 1.162,-3.504 3.247,-6.187 6.255,-8.05 2.255,-1.401 4.784,-2.102 7.587,-2.102 z m 0,4.666 c -2.871,0 -5.101,1.128 -6.689,3.384 -1.813,2.563 -2.717,5.862 -2.717,9.896 0,4.272 0.904,7.699 2.717,10.279 1.571,2.256 3.802,3.384 6.689,3.384 2.871,0 5.094,-1.128 6.666,-3.384 1.811,-2.58 2.717,-5.947 2.717,-10.101 0,-4.204 -0.906,-7.562 -2.717,-10.074 -1.625,-2.256 -3.846,-3.384 -6.666,-3.384 z"
         id="path3547"
         inkscape:connector-curvature="0"
         style="fill:#8cb423" /><path
         d="m 373.065,205.06 h 7.537 c 2.871,0 5.084,0.103 6.639,0.308 2.923,0.41 5.179,1.547 6.768,3.409 1.504,1.794 2.257,4.008 2.257,6.64 0,4.614 -2.223,7.818 -6.665,9.613 l 8.614,15.021 h -6.384 l -7.973,-14.1 h -5.384 v 14.1 h -5.409 z m 5.41,16.226 h 2.436 c 3.059,0 5.178,-0.214 6.357,-0.641 1.162,-0.41 2.043,-1.128 2.64,-2.153 0.514,-0.889 0.771,-1.932 0.771,-3.128 0,-2.307 -0.915,-3.904 -2.744,-4.794 -0.906,-0.461 -2.17,-0.734 -3.793,-0.82 -0.633,-0.033 -1.804,-0.051 -3.513,-0.051 h -2.153 v 11.587 z"
         id="path3549"
         inkscape:connector-curvature="0"
         style="fill:#8cb423" /><path
         d="m 425.031,214.749 h -5.23 c -0.119,-1.486 -0.563,-2.691 -1.332,-3.614 -1.129,-1.333 -2.761,-2 -4.897,-2 -1.521,0 -2.802,0.368 -3.845,1.103 -1.23,0.889 -1.846,2.025 -1.846,3.409 0,1.282 0.65,2.325 1.949,3.128 0.802,0.496 2.785,1.41 5.947,2.743 2.717,1.145 4.57,2.008 5.563,2.589 3.127,1.863 4.691,4.589 4.691,8.178 0,3.435 -1.299,6.126 -3.897,8.075 -2.068,1.555 -4.768,2.332 -8.101,2.332 -4.888,0 -8.442,-1.589 -10.664,-4.768 -1.248,-1.777 -1.939,-4.179 -2.076,-7.203 h 5.256 c 0.188,2.188 0.785,3.845 1.795,4.973 1.349,1.521 3.28,2.281 5.792,2.281 1.847,0 3.375,-0.452 4.589,-1.358 1.162,-0.872 1.744,-2.017 1.744,-3.435 0,-1.504 -0.762,-2.777 -2.282,-3.82 -0.82,-0.563 -2.735,-1.486 -5.742,-2.769 -3.571,-1.538 -5.974,-2.871 -7.204,-3.999 -1.862,-1.743 -2.794,-3.896 -2.794,-6.46 0,-3.246 1.29,-5.759 3.871,-7.536 2.085,-1.452 4.563,-2.18 7.435,-2.18 4.238,0 7.391,1.445 9.459,4.333 1.075,1.486 1.683,3.486 1.819,5.998 z"
         id="path3551"
         inkscape:connector-curvature="0"
         style="fill:#8cb423" /><path
         d="m 457.746,215.646 h -4.795 c -0.838,-4.341 -3.239,-6.512 -7.202,-6.512 -2.787,0 -4.991,1.138 -6.615,3.41 -1.76,2.512 -2.64,5.861 -2.64,10.049 0,4.204 0.913,7.571 2.742,10.1 1.59,2.188 3.777,3.281 6.563,3.281 4.496,0 7.008,-2.803 7.537,-8.408 h 4.922 c -0.188,3.145 -0.863,5.708 -2.025,7.69 -2.119,3.624 -5.528,5.435 -10.229,5.435 -4.221,0 -7.689,-1.4 -10.407,-4.204 -3.196,-3.281 -4.794,-7.896 -4.794,-13.843 0,-6.442 1.785,-11.305 5.357,-14.586 2.65,-2.427 5.854,-3.641 9.613,-3.641 2.375,0 4.494,0.514 6.357,1.539 3.316,1.795 5.187,5.024 5.616,9.69 z"
         id="path3553"
         inkscape:connector-curvature="0"
         style="fill:#8cb423" /><path
         d="m 469.976,219.543 h 15.099 V 205.06 h 5.409 v 34.991 h -5.409 V 224.03 h -15.099 v 16.021 h -5.409 V 205.06 h 5.409 z"
         id="path3555"
         inkscape:connector-curvature="0"
         style="fill:#8cb423" /><path
         d="m 498.921,205.06 h 5.41 v 20.328 c 0,1.777 0.034,3.024 0.102,3.743 0.205,2.461 1.017,4.221 2.437,5.28 1.383,1.043 3.127,1.563 5.229,1.563 2.102,0 3.836,-0.521 5.205,-1.563 1.417,-1.06 2.229,-2.819 2.434,-5.28 0.068,-0.719 0.104,-1.966 0.104,-3.743 V 205.06 h 5.409 v 20.405 c 0,2.649 -0.087,4.555 -0.258,5.717 -0.376,2.614 -1.504,4.733 -3.383,6.357 -2.427,2.102 -5.598,3.152 -9.511,3.152 -3.932,0 -7.11,-1.051 -9.536,-3.152 -1.863,-1.606 -2.991,-3.726 -3.384,-6.357 -0.171,-1.146 -0.257,-3.051 -0.257,-5.717 V 205.06 Z"
         id="path3557"
         inkscape:connector-curvature="0"
         style="fill:#8cb423" /><path
         d="m 533.686,205.06 h 5.819 l 15.433,26.737 V 205.06 h 5.127 v 34.991 h -5.589 l -15.638,-26.686 v 26.686 h -5.152 z"
         id="path3559"
         inkscape:connector-curvature="0"
         style="fill:#8cb423" /><path
         d="m 583.062,222.312 h 11.689 v 14.483 c -3.69,2.599 -7.784,3.896 -12.279,3.896 -4.546,0 -8.194,-1.436 -10.944,-4.307 -1.574,-1.623 -2.728,-3.58 -3.462,-5.87 -0.819,-2.529 -1.229,-5.187 -1.229,-7.973 0,-5.981 1.571,-10.604 4.717,-13.868 2.734,-2.837 6.211,-4.256 10.434,-4.256 2.46,0 4.673,0.53 6.638,1.59 3.35,1.795 5.23,4.982 5.642,9.562 h -4.795 c -0.785,-4.289 -3.256,-6.435 -7.409,-6.435 -2.837,0 -5.033,1 -6.588,3 -1.965,2.495 -2.946,5.964 -2.946,10.407 0,4.461 1.007,7.938 3.023,10.434 1.606,1.999 3.922,2.999 6.948,2.999 2.683,0 5.229,-0.76 7.638,-2.281 v -7.127 h -7.075 v -4.254 z"
         id="path3561"
         inkscape:connector-curvature="0"
         style="fill:#8cb423" /><path
         d="m 620.958,219.594 h 14.048 v 4.666 h -14.048 v 15.791 h -5.409 V 205.06 h 20.713 v 4.64 h -15.304 z"
         id="path3563"
         inkscape:connector-curvature="0"
         style="fill:#8cb423" /><path
         d="m 641.726,205.06 h 5.409 v 20.328 c 0,1.777 0.035,3.024 0.103,3.743 0.205,2.461 1.017,4.221 2.437,5.28 1.383,1.043 3.126,1.563 5.229,1.563 2.102,0 3.836,-0.521 5.205,-1.563 1.417,-1.06 2.229,-2.819 2.434,-5.28 0.068,-0.719 0.104,-1.966 0.104,-3.743 V 205.06 h 5.408 v 20.405 c 0,2.649 -0.086,4.555 -0.257,5.717 -0.376,2.614 -1.504,4.733 -3.382,6.357 -2.428,2.102 -5.599,3.152 -9.512,3.152 -3.932,0 -7.11,-1.051 -9.536,-3.152 -1.863,-1.606 -2.991,-3.726 -3.384,-6.357 -0.171,-1.146 -0.257,-3.051 -0.257,-5.717 V 205.06 Z m 8.408,-10.486 c 0.923,0 1.728,0.334 2.411,1 0.666,0.667 1,1.479 1,2.436 0,0.957 -0.334,1.777 -1,2.461 -0.684,0.666 -1.496,1 -2.437,1 -0.956,0 -1.769,-0.334 -2.435,-1 -0.684,-0.684 -1.025,-1.495 -1.025,-2.436 0,-0.974 0.342,-1.794 1.025,-2.461 0.684,-0.666 1.505,-1 2.461,-1 z m 9.588,0 c 0.923,0 1.717,0.334 2.384,1 0.685,0.684 1.025,1.496 1.025,2.436 0,0.957 -0.341,1.777 -1.025,2.461 -0.667,0.666 -1.47,1 -2.409,1 -0.958,0 -1.778,-0.334 -2.46,-1 -0.668,-0.684 -1,-1.495 -1,-2.436 0,-0.974 0.332,-1.794 1,-2.461 0.699,-0.666 1.527,-1 2.485,-1 z"
         id="path3565"
         inkscape:connector-curvature="0"
         style="fill:#8cb423" /><path
         d="m 676.49,205.06 h 7.537 c 2.871,0 5.084,0.103 6.638,0.308 2.923,0.41 5.179,1.547 6.768,3.409 1.504,1.794 2.256,4.008 2.256,6.64 0,4.614 -2.222,7.818 -6.664,9.613 l 8.613,15.021 h -6.384 l -7.972,-14.1 h -5.384 v 14.1 h -5.408 z m 5.408,16.226 h 2.436 c 3.059,0 5.178,-0.214 6.357,-0.641 1.162,-0.41 2.042,-1.128 2.641,-2.153 0.513,-0.889 0.769,-1.932 0.769,-3.128 0,-2.307 -0.914,-3.904 -2.743,-4.794 -0.906,-0.461 -2.17,-0.734 -3.794,-0.82 -0.632,-0.033 -1.803,-0.051 -3.511,-0.051 h -2.154 v 11.587 z"
         id="path3567"
         inkscape:connector-curvature="0"
         style="fill:#8cb423" /><path
         d="m 138.756,272.312 h 11.689 v 14.483 c -3.691,2.599 -7.783,3.896 -12.279,3.896 -4.545,0 -8.193,-1.436 -10.945,-4.307 -1.572,-1.623 -2.727,-3.58 -3.461,-5.87 -0.82,-2.529 -1.23,-5.187 -1.23,-7.973 0,-5.981 1.572,-10.604 4.717,-13.868 2.734,-2.837 6.212,-4.256 10.434,-4.256 2.461,0 4.674,0.53 6.639,1.59 3.35,1.795 5.23,4.982 5.641,9.562 h -4.794 c -0.786,-4.289 -3.255,-6.435 -7.409,-6.435 -2.836,0 -5.033,1 -6.588,3 -1.965,2.495 -2.947,5.964 -2.947,10.407 0,4.461 1.008,7.938 3.025,10.434 1.605,1.999 3.921,2.999 6.947,2.999 2.682,0 5.229,-0.76 7.639,-2.281 v -7.127 h -7.076 v -4.254 z"
         id="path3569"
         inkscape:connector-curvature="0"
         style="fill:#8cb423" /><path
         d="m 157.961,255.06 h 7.537 c 2.871,0 5.084,0.103 6.638,0.308 2.923,0.41 5.179,1.547 6.768,3.409 1.504,1.794 2.257,4.008 2.257,6.64 0,4.614 -2.223,7.818 -6.664,9.613 l 8.612,15.021 h -6.384 l -7.972,-14.1 h -5.384 v 14.1 h -5.408 z m 5.408,16.226 h 2.436 c 3.059,0 5.178,-0.214 6.357,-0.641 1.162,-0.41 2.042,-1.128 2.641,-2.153 0.513,-0.889 0.769,-1.932 0.769,-3.128 0,-2.307 -0.914,-3.904 -2.743,-4.794 -0.906,-0.461 -2.17,-0.734 -3.793,-0.82 -0.633,-0.033 -1.803,-0.051 -3.512,-0.051 h -2.154 v 11.587 z"
         id="path3571"
         inkscape:connector-curvature="0"
         style="fill:#8cb423" /><path
         d="m 201.415,254.418 c 4.153,0 7.614,1.471 10.382,4.41 3.128,3.298 4.691,7.869 4.691,13.714 0,5.845 -1.563,10.425 -4.691,13.74 -2.768,2.939 -6.221,4.409 -10.355,4.409 -4.205,0 -7.683,-1.47 -10.434,-4.409 -3.127,-3.315 -4.691,-7.98 -4.691,-13.996 0,-2.58 0.42,-5.153 1.256,-7.716 1.162,-3.504 3.247,-6.187 6.256,-8.05 2.254,-1.401 4.783,-2.102 7.586,-2.102 z m 0,4.666 c -2.87,0 -5.101,1.128 -6.69,3.384 -1.811,2.563 -2.717,5.862 -2.717,9.896 0,4.272 0.906,7.699 2.717,10.279 1.572,2.256 3.803,3.384 6.69,3.384 2.872,0 5.093,-1.128 6.665,-3.384 1.812,-2.58 2.719,-5.947 2.719,-10.101 0,-4.204 -0.907,-7.562 -2.719,-10.074 -1.623,-2.256 -3.844,-3.384 -6.665,-3.384 z"
         id="path3573"
         inkscape:connector-curvature="0"
         style="fill:#8cb423" /><path
         d="m 244.767,264.749 h -5.229 c -0.119,-1.486 -0.563,-2.691 -1.333,-3.614 -1.128,-1.333 -2.76,-2 -4.896,-2 -1.521,0 -2.802,0.368 -3.845,1.103 -1.23,0.889 -1.846,2.025 -1.846,3.409 0,1.282 0.649,2.325 1.948,3.128 0.804,0.496 2.785,1.41 5.947,2.743 2.717,1.145 4.571,2.008 5.563,2.589 3.128,1.863 4.691,4.589 4.691,8.178 0,3.435 -1.298,6.126 -3.896,8.075 -2.068,1.555 -4.769,2.332 -8.102,2.332 -4.888,0 -8.441,-1.589 -10.664,-4.768 -1.248,-1.777 -1.939,-4.179 -2.076,-7.203 h 5.256 c 0.188,2.188 0.785,3.845 1.795,4.973 1.349,1.521 3.281,2.281 5.793,2.281 1.846,0 3.375,-0.452 4.588,-1.358 1.163,-0.872 1.743,-2.017 1.743,-3.435 0,-1.504 -0.761,-2.777 -2.28,-3.82 -0.821,-0.563 -2.736,-1.486 -5.742,-2.769 -3.573,-1.538 -5.975,-2.871 -7.205,-3.999 -1.861,-1.743 -2.794,-3.896 -2.794,-6.46 0,-3.246 1.29,-5.759 3.871,-7.536 2.085,-1.452 4.563,-2.18 7.434,-2.18 4.238,0 7.392,1.445 9.459,4.333 1.076,1.486 1.684,3.486 1.82,5.998 z"
         id="path3575"
         inkscape:connector-curvature="0"
         style="fill:#8cb423" /><path
         d="m 274.148,264.749 h -5.23 c -0.119,-1.486 -0.563,-2.691 -1.332,-3.614 -1.129,-1.333 -2.761,-2 -4.896,-2 -1.521,0 -2.804,0.368 -3.846,1.103 -1.23,0.889 -1.845,2.025 -1.845,3.409 0,1.282 0.649,2.325 1.947,3.128 0.803,0.496 2.786,1.41 5.948,2.743 2.717,1.145 4.57,2.008 5.563,2.589 3.127,1.863 4.691,4.589 4.691,8.178 0,3.435 -1.3,6.126 -3.896,8.075 -2.069,1.555 -4.769,2.332 -8.102,2.332 -4.888,0 -8.442,-1.589 -10.664,-4.768 -1.248,-1.777 -1.939,-4.179 -2.076,-7.203 h 5.255 c 0.188,2.188 0.786,3.845 1.796,4.973 1.35,1.521 3.28,2.281 5.792,2.281 1.846,0 3.375,-0.452 4.589,-1.358 1.162,-0.872 1.744,-2.017 1.744,-3.435 0,-1.504 -0.762,-2.777 -2.282,-3.82 -0.82,-0.563 -2.735,-1.486 -5.742,-2.769 -3.571,-1.538 -5.974,-2.871 -7.204,-3.999 -1.861,-1.743 -2.793,-3.896 -2.793,-6.46 0,-3.246 1.289,-5.759 3.871,-7.536 2.084,-1.452 4.563,-2.18 7.434,-2.18 4.238,0 7.391,1.445 9.459,4.333 1.075,1.486 1.682,3.486 1.819,5.998 z"
         id="path3577"
         inkscape:connector-curvature="0"
         style="fill:#8cb423" /><path
         d="m 286.986,269.594 h 14.047 v 4.666 h -14.047 v 11.125 h 15.766 v 4.666 H 281.576 V 255.06 h 20.714 v 4.64 h -15.304 z"
         id="path3579"
         inkscape:connector-curvature="0"
         style="fill:#8cb423" /><path
         d="m 327.752,269.543 h 15.099 V 255.06 h 5.409 v 34.991 h -5.409 V 274.03 h -15.099 v 16.021 h -5.408 V 255.06 h 5.408 z"
         id="path3581"
         inkscape:connector-curvature="0"
         style="fill:#8cb423" /><path
         d="m 362.516,269.594 h 14.049 v 4.666 h -14.049 v 11.125 h 15.766 v 4.666 H 357.108 V 255.06 h 20.712 v 4.64 h -15.304 z"
         id="path3583"
         inkscape:connector-curvature="0"
         style="fill:#8cb423" /><path
         d="m 384.591,255.06 h 7.537 c 2.871,0 5.084,0.103 6.639,0.308 2.923,0.41 5.179,1.547 6.769,3.409 1.504,1.794 2.255,4.008 2.255,6.64 0,4.614 -2.222,7.818 -6.663,9.613 l 8.613,15.021 h -6.385 l -7.972,-14.1 H 390 v 14.1 h -5.409 z M 390,271.286 h 2.436 c 3.059,0 5.178,-0.214 6.357,-0.641 1.163,-0.41 2.043,-1.128 2.64,-2.153 0.514,-0.889 0.771,-1.932 0.771,-3.128 0,-2.307 -0.914,-3.904 -2.744,-4.794 -0.906,-0.461 -2.169,-0.734 -3.794,-0.82 -0.632,-0.033 -1.803,-0.051 -3.512,-0.051 H 390 Z"
         id="path3585"
         inkscape:connector-curvature="0"
         style="fill:#8cb423" /><path
         d="m 423.958,254.957 h 5.255 l 11.973,35.094 h -5.615 l -2.588,-8.203 h -12.741 l -2.641,8.203 h -5.562 z m 7.588,22.225 -4.947,-15.739 -4.948,15.739 z"
         id="path3587"
         inkscape:connector-curvature="0"
         style="fill:#8cb423" /><path
         d="m 444.59,255.06 h 5.409 v 20.328 c 0,1.777 0.033,3.024 0.102,3.743 0.206,2.461 1.017,4.221 2.437,5.28 1.383,1.043 3.127,1.563 5.229,1.563 2.102,0 3.836,-0.521 5.204,-1.563 1.418,-1.06 2.229,-2.819 2.435,-5.28 0.068,-0.719 0.103,-1.966 0.103,-3.743 V 255.06 h 5.409 v 20.405 c 0,2.649 -0.085,4.555 -0.257,5.717 -0.376,2.614 -1.503,4.733 -3.382,6.357 -2.429,2.102 -5.599,3.152 -9.512,3.152 -3.932,0 -7.109,-1.051 -9.536,-3.152 -1.863,-1.606 -2.991,-3.726 -3.384,-6.357 -0.171,-1.146 -0.256,-3.051 -0.256,-5.717 V 255.06 Z"
         id="path3589"
         inkscape:connector-curvature="0"
         style="fill:#8cb423" /><path
         d="m 500.886,264.749 h -5.229 c -0.119,-1.486 -0.563,-2.691 -1.333,-3.614 -1.128,-1.333 -2.759,-2 -4.896,-2 -1.521,0 -2.804,0.368 -3.846,1.103 -1.23,0.889 -1.846,2.025 -1.846,3.409 0,1.282 0.649,2.325 1.949,3.128 0.802,0.496 2.784,1.41 5.946,2.743 2.717,1.145 4.571,2.008 5.563,2.589 3.128,1.863 4.691,4.589 4.691,8.178 0,3.435 -1.299,6.126 -3.896,8.075 -2.069,1.555 -4.769,2.332 -8.102,2.332 -4.887,0 -8.442,-1.589 -10.664,-4.768 -1.248,-1.777 -1.939,-4.179 -2.076,-7.203 h 5.255 c 0.188,2.188 0.786,3.845 1.795,4.973 1.351,1.521 3.281,2.281 5.793,2.281 1.846,0 3.375,-0.452 4.59,-1.358 1.161,-0.872 1.742,-2.017 1.742,-3.435 0,-1.504 -0.761,-2.777 -2.281,-3.82 -0.82,-0.563 -2.735,-1.486 -5.742,-2.769 -3.572,-1.538 -5.974,-2.871 -7.204,-3.999 -1.862,-1.743 -2.793,-3.896 -2.793,-6.46 0,-3.246 1.289,-5.759 3.871,-7.536 2.084,-1.452 4.563,-2.18 7.434,-2.18 4.237,0 7.392,1.445 9.458,4.333 1.078,1.486 1.684,3.486 1.821,5.998 z"
         id="path3591"
         inkscape:connector-curvature="0"
         style="fill:#8cb423" /><path
         d="m 514.145,269.594 h 14.047 v 4.666 h -14.047 v 15.791 h -5.41 V 255.06 h 20.713 v 4.64 h -15.303 z"
         id="path3593"
         inkscape:connector-curvature="0"
         style="fill:#8cb423" /><path
         d="m 548.344,254.418 c 4.154,0 7.614,1.471 10.382,4.41 3.128,3.298 4.691,7.869 4.691,13.714 0,5.845 -1.563,10.425 -4.691,13.74 -2.768,2.939 -6.221,4.409 -10.354,4.409 -4.206,0 -7.684,-1.47 -10.435,-4.409 -3.128,-3.315 -4.69,-7.98 -4.69,-13.996 0,-2.58 0.418,-5.153 1.256,-7.716 1.162,-3.504 3.247,-6.187 6.254,-8.05 2.255,-1.401 4.784,-2.102 7.587,-2.102 z m 0,4.666 c -2.871,0 -5.1,1.128 -6.69,3.384 -1.812,2.563 -2.717,5.862 -2.717,9.896 0,4.272 0.905,7.699 2.717,10.279 1.572,2.256 3.804,3.384 6.69,3.384 2.871,0 5.093,-1.128 6.665,-3.384 1.812,-2.58 2.718,-5.947 2.718,-10.101 0,-4.204 -0.906,-7.562 -2.718,-10.074 -1.624,-2.256 -3.845,-3.384 -6.665,-3.384 z"
         id="path3595"
         inkscape:connector-curvature="0"
         style="fill:#8cb423" /><path
         d="m 570.162,255.06 h 7.537 c 2.871,0 5.084,0.103 6.639,0.308 2.923,0.41 5.179,1.547 6.768,3.409 1.504,1.794 2.256,4.008 2.256,6.64 0,4.614 -2.221,7.818 -6.664,9.613 l 8.613,15.021 h -6.383 l -7.972,-14.1 h -5.385 v 14.1 h -5.409 z m 5.409,16.226 h 2.436 c 3.059,0 5.179,-0.214 6.358,-0.641 1.162,-0.41 2.041,-1.128 2.639,-2.153 0.514,-0.889 0.77,-1.932 0.77,-3.128 0,-2.307 -0.914,-3.904 -2.742,-4.794 -0.907,-0.461 -2.17,-0.734 -3.795,-0.82 -0.632,-0.033 -1.803,-0.051 -3.512,-0.051 h -2.153 v 11.587 z"
         id="path3597"
         inkscape:connector-curvature="0"
         style="fill:#8cb423" /><path
         d="m 600.595,255.06 h 7.102 c 2.836,0 5.161,0.137 6.974,0.41 3.742,0.581 6.74,2.333 8.996,5.255 2.496,3.23 3.743,7.169 3.743,11.817 0,4.769 -1.273,8.776 -3.819,12.022 -2.308,2.975 -5.452,4.7 -9.434,5.179 -1.624,0.205 -4.025,0.308 -7.203,0.308 h -6.358 V 255.06 Z m 5.409,30.325 h 2.819 c 2.103,0 3.734,-0.093 4.896,-0.281 2.649,-0.462 4.642,-1.786 5.973,-3.974 1.419,-2.341 2.128,-5.221 2.128,-8.639 0,-3.503 -0.786,-6.409 -2.358,-8.716 -1.419,-2.103 -3.435,-3.358 -6.05,-3.769 -1.179,-0.205 -3.145,-0.308 -5.896,-0.308 h -1.513 v 25.687 z"
         id="path3599"
         inkscape:connector-curvature="0"
         style="fill:#8cb423" /><path
         d="m 639.59,269.594 h 14.047 v 4.666 H 639.59 v 11.125 h 15.765 v 4.666 H 634.18 V 255.06 h 20.713 v 4.64 H 639.59 Z"
         id="path3601"
         inkscape:connector-curvature="0"
         style="fill:#8cb423" /><path
         d="m 661.664,255.06 h 7.537 c 2.871,0 5.084,0.103 6.639,0.308 2.923,0.41 5.18,1.547 6.768,3.409 1.504,1.794 2.256,4.008 2.256,6.64 0,4.614 -2.222,7.818 -6.664,9.613 l 8.613,15.021 h -6.384 l -7.972,-14.1 h -5.384 v 14.1 h -5.409 z m 5.409,16.226 h 2.436 c 3.059,0 5.178,-0.214 6.357,-0.641 1.162,-0.41 2.042,-1.128 2.64,-2.153 0.514,-0.889 0.77,-1.932 0.77,-3.128 0,-2.307 -0.914,-3.904 -2.743,-4.794 -0.906,-0.461 -2.17,-0.734 -3.794,-0.82 -0.631,-0.033 -1.803,-0.051 -3.512,-0.051 h -2.153 v 11.587 z"
         id="path3603"
         inkscape:connector-curvature="0"
         style="fill:#8cb423" /><path
         d="m 691.003,255.06 h 5.409 v 20.328 c 0,1.777 0.034,3.024 0.104,3.743 0.204,2.461 1.016,4.221 2.435,5.28 1.384,1.043 3.128,1.563 5.229,1.563 2.101,0 3.836,-0.521 5.204,-1.563 1.419,-1.06 2.229,-2.819 2.435,-5.28 0.068,-0.719 0.103,-1.966 0.103,-3.743 V 255.06 h 5.41 v 20.405 c 0,2.649 -0.087,4.555 -0.258,5.717 -0.376,2.614 -1.504,4.733 -3.383,6.357 -2.428,2.102 -5.598,3.152 -9.511,3.152 -3.931,0 -7.11,-1.051 -9.535,-3.152 -1.864,-1.606 -2.992,-3.726 -3.385,-6.357 -0.17,-1.146 -0.257,-3.051 -0.257,-5.717 z"
         id="path3605"
         inkscape:connector-curvature="0"
         style="fill:#8cb423" /><path
         d="m 725.348,255.06 h 5.819 L 746.6,281.797 V 255.06 h 5.127 v 34.991 h -5.589 L 730.5,263.365 v 26.686 h -5.152 z"
         id="path3607"
         inkscape:connector-curvature="0"
         style="fill:#8cb423" /><path
         d="m 774.724,272.312 h 11.69 v 14.483 c -3.692,2.599 -7.785,3.896 -12.28,3.896 -4.546,0 -8.194,-1.436 -10.945,-4.307 -1.573,-1.623 -2.727,-3.58 -3.461,-5.87 -0.82,-2.529 -1.229,-5.187 -1.229,-7.973 0,-5.981 1.571,-10.604 4.717,-13.868 2.733,-2.837 6.211,-4.256 10.434,-4.256 2.46,0 4.673,0.53 6.639,1.59 3.349,1.795 5.229,4.982 5.641,9.562 h -4.795 c -0.786,-4.289 -3.256,-6.435 -7.409,-6.435 -2.837,0 -5.033,1 -6.588,3 -1.965,2.495 -2.947,5.964 -2.947,10.407 0,4.461 1.008,7.938 3.024,10.434 1.606,1.999 3.922,2.999 6.947,2.999 2.683,0 5.23,-0.76 7.639,-2.281 v -7.127 h -7.075 v -4.254 z"
         id="path3609"
         inkscape:connector-curvature="0"
         style="fill:#8cb423" /><path
         d="m 799.337,269.594 h 14.048 v 4.666 h -14.048 v 11.125 h 15.766 v 4.666 H 793.928 V 255.06 h 20.713 v 4.64 h -15.304 z"
         id="path3611"
         inkscape:connector-curvature="0"
         style="fill:#8cb423" /><path
         d="m 821.412,255.06 h 5.82 l 15.432,26.737 V 255.06 h 5.127 v 34.991 h -5.588 l -15.639,-26.686 v 26.686 h -5.152 z"
         id="path3613"
         inkscape:connector-curvature="0"
         style="fill:#8cb423" /></g><rect
       width="971.34302"
       height="375.09"
       id="rect3615"
       x="0"
       y="0"
       style="fill:none" /></g><g
     id="Ebene_2"
     display="none"
     style="display:none"
     transform="translate(-110,-97.999884)"><path
       display="inline"
       d="M 955.022,239.478 V 205.06 h 16.32 v 85.04 h -16.32 V 255.798 H 925.878 V 290.1 h -16.311 v -85.04 h 16.311 v 34.418 z"
       id="path3618"
       inkscape:connector-curvature="0"
       style="display:inline;fill:#bdc3c5" /><path
       display="inline"
       d="M 893.248,239.478 V 205.06 h 16.32 v 85.04 h -16.32 V 255.798 H 864.103 V 290.1 h -16.311 v -85.04 h 16.311 v 34.418 z"
       id="path3620"
       inkscape:connector-curvature="0"
       style="display:inline;fill:#bdc3c5" /><path
       display="inline"
       d="M 107.229,119.457 V 85.039 h 16.32 v 85.039 h -16.32 V 135.777 H 78.085 v 34.301 H 61.774 V 85.039 h 16.311 v 34.418 z"
       id="path3622"
       inkscape:connector-curvature="0"
       style="display:inline;fill:#bdc3c5" /><path
       display="inline"
       d="M 45.454,119.457 V 85.039 h 16.32 v 85.039 H 45.454 V 135.777 H 16.311 v 34.301 H 0 V 85.039 h 16.311 v 34.418 z"
       id="path3624"
       inkscape:connector-curvature="0"
       style="display:inline;fill:#bdc3c5" /><path
       display="inline"
       d="M 169.004,34.418 V 0 h 16.32 v 85.039 h -16.32 V 50.738 H 139.859 V 85.039 H 123.548 V 0 h 16.311 v 34.418 z"
       id="path3626"
       inkscape:connector-curvature="0"
       style="display:inline;fill:#bdc3c5" /><path
       display="inline"
       d="m 169.004,324.469 v -34.418 h 16.32 v 85.039 h -16.32 v -34.301 h -29.145 v 34.301 h -16.311 v -85.039 h 16.311 v 34.418 z"
       id="path3628"
       inkscape:connector-curvature="0"
       style="display:inline;fill:#bdc3c5" /><path
       display="inline"
       d="m 128.959,184.612 h 14.048 v 4.666 h -14.048 v 11.125 h 15.766 v 4.666 h -21.176 v -34.991 h 20.713 v 4.641 h -15.303 z"
       id="path3630"
       inkscape:connector-curvature="0"
       style="display:inline;fill:#bdc3c5" /></g></svg>