<?xml version="1.0" encoding="UTF-8" standalone="no"?>
<svg
   xmlns:svg="http://www.w3.org/2000/svg"
   xmlns="http://www.w3.org/2000/svg"
   id="svg4569"
   version="1.1"
   viewBox="0 0 165.48521 49.521183"
   height="187.16667"
   width="625.45593">
  <defs
     id="defs4563" />
  <g
     transform="translate(-23.846674,-102.90607)"
     id="layer1">
    <path
       d="m 25.169591,135.16831 h 1.571625 v -15.50352 h -1.571625 z m 5.768622,0 h 1.288979 v -15.50352 h -1.288979 z m 5.767917,0 h 1.006051 V 119.66479 H 36.70613 Z m 5.768622,0 h 0.723194 v -15.50352 h -0.723194 z m 5.767916,0 h 0.440972 v -15.50352 h -0.440972 z m 135.335782,-3.19158 c -0.90699,0 -1.45098,-0.44344 -1.71274,-1.24954 -0.16121,-0.44309 -0.22154,-0.92675 -0.22154,-1.59173 0,-0.64488 0.0603,-1.12819 0.22154,-1.59209 0.26176,-0.78563 0.80575,-1.22872 1.71274,-1.22872 0.92675,0 1.47108,0.44309 1.73284,1.22872 0.16122,0.4639 0.2219,0.94721 0.2219,1.59209 0,0.66498 -0.0607,1.14864 -0.2219,1.59173 -0.26176,0.8061 -0.80609,1.24954 -1.73284,1.24954 m -0.32244,6.10552 c 2.98238,0 4.53425,-1.67251 4.53425,-4.45311 v -8.90658 c 0,-0.121 -0.0811,-0.20179 -0.20214,-0.20179 h -1.85349 c -0.12101,0 -0.20144,0.0808 -0.20144,0.20179 v 0.72531 h -0.0204 c -0.44309,-0.7052 -1.2693,-1.14864 -2.51848,-1.14864 -1.6323,0 -2.80106,0.8262 -3.30482,2.37807 -0.24201,0.74542 -0.32244,1.3903 -0.32244,2.45816 0,1.06786 0.0804,1.73284 0.32244,2.47861 0.50376,1.53141 1.67252,2.35727 3.30482,2.35727 1.24918,0 2.07539,-0.44309 2.51848,-1.12819 h 0.0204 v 0.90664 c 0,1.5113 -0.68509,2.31775 -2.17628,2.31775 -0.8061,0 -1.5113,-0.32244 -2.11596,-0.90699 -0.1009,-0.1009 -0.20144,-0.1009 -0.30234,0 l -1.18886,1.18886 c -0.10089,0.10089 -0.10089,0.18133 -0.0201,0.28222 0.74577,0.88653 2.17628,1.45062 3.52636,1.45062 m -5.92384,-3.84845 c 0.12065,0 0.20143,-0.0811 0.20143,-0.20144 v -6.12598 c 0,-2.07574 -1.28975,-3.60715 -3.36514,-3.60715 -1.28976,0 -2.13607,0.52422 -2.55941,1.12853 h -0.0201 v -0.7052 c 0,-0.121 -0.0804,-0.20179 -0.20144,-0.20179 h -1.85385 c -0.12065,0 -0.20144,0.0808 -0.20144,0.20179 v 9.3098 c 0,0.1203 0.0808,0.20144 0.20144,0.20144 h 1.85385 c 0.121,0 0.20144,-0.0811 0.20144,-0.20144 v -5.60211 c 0,-1.24953 0.68544,-2.1156 1.8542,-2.1156 1.20861,0 1.83373,0.86607 1.83373,2.1156 v 5.60211 c 0,0.1203 0.0804,0.20144 0.20144,0.20144 z m -10.78054,0 c 0.121,0 0.20144,-0.0811 0.20144,-0.20144 v -9.3098 c 0,-0.121 -0.0804,-0.20179 -0.20144,-0.20179 h -1.85385 c -0.121,0 -0.20143,0.0808 -0.20143,0.20179 v 5.62187 c 0,1.22943 -0.66499,2.0955 -1.81363,2.0955 -1.22908,0 -1.81328,-0.86607 -1.81328,-2.11561 v -5.60176 c 0,-0.121 -0.0808,-0.20179 -0.20144,-0.20179 h -1.8542 c -0.121,0 -0.20143,0.0808 -0.20143,0.20179 v 6.12563 c 0,2.07575 1.26929,3.60716 3.34504,3.60716 1.22907,0 1.99495,-0.46355 2.51883,-1.12854 h 0.0201 v 0.70555 c 0,0.1203 0.0804,0.20144 0.20143,0.20144 z m -10.02877,0.12065 c 0.12065,0 0.20144,-0.0804 0.20144,-0.20179 v -1.61184 c 0,-0.121 -0.0808,-0.20143 -0.20144,-0.20143 h -0.50376 c -0.62477,0 -0.90699,-0.22155 -0.90699,-0.90664 v -5.03767 c 0,-0.0804 0.0402,-0.12065 0.121,-0.12065 h 1.28975 c 0.12065,0 0.20144,-0.0808 0.20144,-0.20179 v -1.35008 c 0,-0.121 -0.0808,-0.20179 -0.20144,-0.20179 h -1.28975 c -0.0808,0 -0.121,-0.0399 -0.121,-0.12065 v -2.65994 c 0,-0.12065 -0.0804,-0.20144 -0.20144,-0.20144 h -1.85385 c -0.12065,0 -0.20143,0.0808 -0.20143,0.20144 v 2.65994 c 0,0.0808 -0.0402,0.12065 -0.12065,0.12065 h -0.64523 c -0.12065,0 -0.20144,0.0808 -0.20144,0.20179 v 1.35008 c 0,0.121 0.0808,0.20179 0.20144,0.20179 h 0.64523 c 0.0804,0 0.12065,0.0402 0.12065,0.12065 v 5.1181 c 0,1.89406 0.74542,2.84127 2.70016,2.84127 z m -8.23524,-0.12065 c 0.12065,0 0.20144,-0.0811 0.20144,-0.20144 v -7.63728 c 0,-0.0804 0.0402,-0.12065 0.121,-0.12065 h 1.73284 c 0.12065,0 0.20144,-0.0808 0.20144,-0.20179 v -1.35008 c 0,-0.121 -0.0808,-0.20179 -0.20144,-0.20179 h -1.73284 c -0.0808,0 -0.121,-0.0399 -0.121,-0.12065 v -0.66498 c 0,-0.94721 0.22154,-1.18887 1.22907,-1.18887 h 0.62477 c 0.12065,0 0.20144,-0.0808 0.20144,-0.20143 v -1.6122 c 0,-0.121 -0.0808,-0.20143 -0.20144,-0.20143 h -0.88688 c -2.11561,0 -3.22403,0.98742 -3.22403,3.24414 v 0.62477 c 0,0.0808 -0.0402,0.12065 -0.12101,0.12065 h -0.64452 c -0.12101,0 -0.20144,0.0808 -0.20144,0.20179 v 1.35008 c 0,0.121 0.0804,0.20179 0.20144,0.20179 h 0.64452 c 0.0808,0 0.12101,0.0402 0.12101,0.12065 v 7.63728 c 0,0.1203 0.0808,0.20144 0.20178,0.20144 z m -5.19888,0 c 0.121,0 0.20178,-0.0811 0.20178,-0.20144 v -9.3098 c 0,-0.121 -0.0808,-0.20179 -0.20178,-0.20179 h -1.85385 c -0.121,0 -0.20144,0.0808 -0.20144,0.20179 v 9.3098 c 0,0.1203 0.0804,0.20144 0.20144,0.20144 z m 0,-11.54677 c 0.121,0 0.20178,-0.0804 0.20178,-0.20143 v -1.75296 c 0,-0.121 -0.0808,-0.20143 -0.20178,-0.20143 h -1.85385 c -0.121,0 -0.20144,0.0804 -0.20144,0.20143 v 1.75296 c 0,0.121 0.0804,0.20143 0.20144,0.20143 z m -4.31413,11.66742 c 0.12101,0 0.20144,-0.0804 0.20144,-0.20179 v -1.61184 c 0,-0.121 -0.0804,-0.20143 -0.20144,-0.20143 h -0.50376 c -0.62477,0 -0.90699,-0.22155 -0.90699,-0.90664 v -5.03767 c 0,-0.0804 0.0406,-0.12065 0.121,-0.12065 h 1.28975 c 0.12101,0 0.20144,-0.0808 0.20144,-0.20179 v -1.35008 c 0,-0.121 -0.0804,-0.20179 -0.20144,-0.20179 h -1.28975 c -0.0804,0 -0.121,-0.0399 -0.121,-0.12065 v -2.65994 c 0,-0.12065 -0.0804,-0.20144 -0.20144,-0.20144 h -1.85385 c -0.12065,0 -0.20143,0.0808 -0.20143,0.20144 v 2.65994 c 0,0.0808 -0.0406,0.12065 -0.121,0.12065 h -0.64488 c -0.12065,0 -0.20144,0.0808 -0.20144,0.20179 v 1.35008 c 0,0.121 0.0808,0.20179 0.20144,0.20179 h 0.64488 c 0.0804,0 0.121,0.0402 0.121,0.12065 v 5.1181 c 0,1.89406 0.74542,2.84127 2.70016,2.84127 z m -10.19598,0.1009 c 2.65995,0 4.07035,-1.35009 4.07035,-3.28436 0,-1.59209 -0.96732,-2.63984 -3.00249,-2.84163 l -1.04775,-0.10054 c -1.24919,-0.121 -1.59209,-0.46355 -1.59209,-1.028 0,-0.5842 0.50412,-1.00718 1.47109,-1.00718 0.96731,0 1.93463,0.38277 2.53894,0.80575 0.10089,0.0607 0.20179,0.0607 0.28222,-0.0402 l 0.98743,-1.18886 c 0.0607,-0.0808 0.0607,-0.20144 -0.0402,-0.28222 -0.86677,-0.68475 -2.13607,-1.18887 -3.64737,-1.18887 -2.41794,0 -3.76802,1.18887 -3.76802,3.06282 0,1.65241 1.00753,2.65995 2.98203,2.86173 l 1.0481,0.10055 c 1.2693,0.121 1.6122,0.48365 1.6122,1.06821 0,0.66463 -0.60501,1.14829 -1.79388,1.14829 -1.00718,0 -2.13571,-0.46355 -2.84092,-1.10808 -0.0804,-0.0804 -0.20143,-0.0804 -0.28186,0 l -1.149,1.20897 c -0.0804,0.0808 -0.0804,0.20144 0,0.28223 0.8061,0.74541 2.17628,1.5314 4.17124,1.5314 m -6.12528,-0.22154 c 0.12065,0 0.20144,-0.0811 0.20144,-0.20144 v -6.12598 c 0,-2.07575 -1.28976,-3.60716 -3.36515,-3.60716 -1.28975,0 -2.13642,0.52423 -2.5594,1.12854 h -0.0201 v -0.7052 c 0,-0.12101 -0.0804,-0.20179 -0.20144,-0.20179 h -1.85385 c -0.12065,0 -0.20143,0.0808 -0.20143,0.20179 v 9.3098 c 0,0.1203 0.0808,0.20144 0.20143,0.20144 h 1.85385 c 0.121,0 0.20144,-0.0811 0.20144,-0.20144 v -5.60211 c 0,-1.24954 0.68509,-2.11561 1.85385,-2.11561 1.20896,0 1.83373,0.86607 1.83373,2.11561 v 5.60211 c 0,0.1203 0.0804,0.20144 0.20144,0.20144 z m -12.29185,-5.94466 c 0,0.0808 -0.0406,0.12101 -0.12101,0.12101 h -3.80858 c -0.0808,0 -0.12101,-0.0402 -0.12101,-0.12101 0,-0.34254 0.0402,-0.5842 0.12101,-0.8262 0.26211,-0.78564 0.98742,-1.24954 1.91452,-1.24954 0.90664,0 1.6323,0.4639 1.89406,1.24954 0.0804,0.242 0.12101,0.48366 0.12101,0.8262 m -1.93464,6.16621 c 1.79352,0 3.16371,-0.68545 3.98957,-1.65241 0.0808,-0.10055 0.0808,-0.20144 -0.0201,-0.28223 l -1.18886,-1.04775 c -0.10055,-0.0804 -0.20144,-0.0603 -0.30233,0.0402 -0.48331,0.52388 -1.18887,0.92675 -2.27683,0.92675 -1.08797,0 -1.8535,-0.52352 -2.17629,-1.47073 -0.0808,-0.2219 -0.14111,-0.46355 -0.14111,-0.74542 0,-0.0808 0.0402,-0.121 0.121,-0.121 h 5.98453 c 0.14111,0 0.22189,-0.0808 0.22189,-0.20144 0,-1.57198 -0.10089,-2.23696 -0.32244,-2.92206 -0.54398,-1.65205 -1.99495,-2.68005 -3.98956,-2.68005 -1.93499,0 -3.42582,0.98743 -3.96981,2.68005 -0.20143,0.62477 -0.32244,1.39065 -0.32244,2.39819 0,1.00718 0.14111,1.75295 0.34255,2.37772 0.54398,1.69263 1.99461,2.70016 4.05024,2.70016 m -6.7243,-0.22154 c 0.12136,0 0.20179,-0.0811 0.20179,-0.20144 v -9.30981 c 0,-0.121 -0.0804,-0.20178 -0.20179,-0.20178 h -1.853843 c -0.121002,0 -0.201435,0.0808 -0.201435,0.20178 v 9.30981 c 0,0.1203 0.08043,0.20144 0.201435,0.20144 z m 0,-11.54677 c 0.12136,0 0.20179,-0.0804 0.20179,-0.20144 v -1.75295 c 0,-0.121 -0.0804,-0.20144 -0.20179,-0.20144 h -1.853843 c -0.121002,0 -0.201435,0.0804 -0.201435,0.20144 v 1.75295 c 0,0.121 0.08043,0.20144 0.201435,0.20144 z m -8.765463,9.75289 c -0.90664,0 -1.531408,-0.44309 -1.793171,-1.24883 -0.141111,-0.4438 -0.201436,-0.9271 -0.201436,-1.81363 0,-0.88689 0.06033,-1.37019 0.201436,-1.81399 0.261763,-0.80574 0.886531,-1.24883 1.793171,-1.24883 0.9271,0 1.551868,0.44309 1.813629,1.24883 0.141113,0.4438 0.201438,0.9271 0.201438,1.81399 0,0.88653 -0.06033,1.36983 -0.201438,1.81363 -0.261761,0.80574 -0.886529,1.24883 -1.813629,1.24883 m 4.07035,1.79388 c 0.121354,0 0.201787,-0.0811 0.201787,-0.20144 v -13.29973 c 0,-0.121 -0.08043,-0.20143 -0.201787,-0.20143 h -1.853848 c -0.12065,0 -0.201435,0.0804 -0.201435,0.20143 v 4.71523 h -0.02011 c -0.463198,-0.66463 -1.269648,-1.14864 -2.579158,-1.14864 -1.652058,0 -2.861382,0.78599 -3.3655,2.3375 -0.241655,0.74542 -0.342196,1.43087 -0.342196,2.74073 0,1.30951 0.100541,1.99496 0.342196,2.74038 0.504118,1.55152 1.713442,2.33751 3.3655,2.33751 1.30951,0 2.11596,-0.48401 2.579158,-1.14865 h 0.02011 v 0.72566 c 0,0.1203 0.08079,0.20144 0.201435,0.20144 z m -10.477855,0 c 0.121005,0 0.201438,-0.0811 0.201438,-0.20144 v -9.30981 c 0,-0.121 -0.08043,-0.20178 -0.201438,-0.20178 h -1.853845 c -0.121005,0 -0.201438,0.0808 -0.201438,0.20178 v 5.62187 c 0,1.22943 -0.665337,2.0955 -1.813629,2.0955 -1.229079,0 -1.813631,-0.86607 -1.813631,-2.11561 v -5.60176 c 0,-0.121 -0.08079,-0.20178 -0.201435,-0.20178 h -1.853849 c -0.121001,0 -0.201435,0.0808 -0.201435,0.20178 v 6.12563 c 0,2.07575 1.269294,3.60716 3.345037,3.60716 1.22908,0 1.994607,-0.46355 2.518834,-1.12854 h 0.02011 v 0.70555 c 0,0.1203 0.08043,0.20144 0.201438,0.20144 z m -10.115547,0.12065 c 0.121002,0 0.201435,-0.0804 0.201435,-0.20179 v -1.61184 c 0,-0.12101 -0.08043,-0.20144 -0.201435,-0.20144 h -0.503767 c -0.624771,0 -0.906639,-0.22155 -0.906639,-0.90664 v -5.03767 c 0,-0.0804 0.04022,-0.12065 0.12065,-0.12065 h 1.289756 c 0.121002,0 0.201435,-0.0808 0.201435,-0.20178 v -1.35009 c 0,-0.121 -0.08043,-0.20178 -0.201435,-0.20178 h -1.289756 c -0.08043,0 -0.12065,-0.0399 -0.12065,-0.12065 v -2.65995 c 0,-0.12065 -0.08079,-0.20143 -0.201436,-0.20143 h -1.8542 c -0.121004,0 -0.201438,0.0808 -0.201438,0.20143 v 2.65995 c 0,0.0808 -0.04022,0.12065 -0.121001,0.12065 h -0.644525 c -0.121002,0 -0.201436,0.0808 -0.201436,0.20178 v 1.35009 c 0,0.121 0.08043,0.20178 0.201436,0.20178 h 0.644525 c 0.08078,0 0.121001,0.0402 0.121001,0.12065 v 5.1181 c 0,1.89407 0.745774,2.84128 2.700163,2.84128 z m -10.88108,0.10089 c 3.405365,0 5.158317,-1.81363 5.158317,-4.25203 0,-2.35726 -1.45062,-3.6068 -4.090458,-3.96946 l -0.72531,-0.10089 c -1.853849,-0.26211 -2.519186,-0.90664 -2.519186,-1.85385 0,-1.06786 0.766234,-1.83374 2.156529,-1.83374 1.148292,0 2.175933,0.34255 3.284363,1.06822 0.100894,0.0603 0.201435,0.0402 0.28222,-0.0603 l 0.967317,-1.4912 c 0.08043,-0.121 0.06032,-0.20143 -0.04022,-0.28222 -1.088318,-0.8262 -2.72062,-1.37019 -4.433358,-1.37019 -2.821162,0 -4.634442,1.65241 -4.634442,4.13068 0,2.27718 1.491192,3.54683 4.130675,3.90948 l 0.725313,0.10054 c 1.894062,0.26212 2.499077,0.90699 2.499077,1.89407 0,1.14864 -0.947208,1.97485 -2.57951,1.97485 -1.531408,0 -2.841273,-0.74542 -3.727805,-1.45098 -0.08078,-0.0804 -0.201787,-0.0804 -0.28222,0.0201 l -1.249188,1.45098 c -0.08043,0.10054 -0.04022,0.22189 0.04022,0.30232 1.067858,1.00754 3.022248,1.81364 5.037666,1.81364"
       style="fill:#f7a600;fill-opacity:1;fill-rule:nonzero;stroke:none;stroke-width:0.35277775"
       id="path48" />
    <path
       d="m 48.66459,151.10434 h 1.571625 V 135.16831 H 48.66459 Z m -5.145969,0 h 1.28905 v -15.93603 h -1.28905 z m -5.145617,0 h 1.006123 v -15.93603 h -1.006123 z m -5.145264,0 h 0.723336 V 135.16831 H 33.22774 Z m -5.145616,0 h 0.440373 V 135.16831 H 28.082124 Z M 48.66459,119.66479 h 1.571625 v -15.4358 H 48.66459 Z m -5.145969,0 h 1.28905 v -15.4358 h -1.28905 z m -5.145617,0 h 1.006123 v -15.4358 h -1.006123 z m -5.145264,0 h 0.723336 v -15.4358 H 33.22774 Z m -5.145616,0 h 0.440373 v -15.4358 h -0.440373 z m 157.176606,30.81266 c 1.78118,0 2.75025,-0.89781 2.75025,-2.23731 0,-1.09679 -0.66992,-1.79529 -2.0521,-1.9237 l -0.71226,-0.0709 c -1.01212,-0.0998 -1.3395,-0.38488 -1.3395,-0.92639 0,-0.55563 0.44133,-0.94051 1.29646,-0.94051 0.69815,0 1.39665,0.27093 1.83833,0.55562 0.0713,0.0427 0.14252,0.0427 0.19931,-0.0282 l 0.48437,-0.61277 c 0.0427,-0.0713 0.0427,-0.15663 -0.0286,-0.19932 -0.56973,-0.42792 -1.42487,-0.75565 -2.42217,-0.75565 -1.61008,0 -2.53647,0.78422 -2.53647,2.08068 0,1.11125 0.6985,1.78118 2.038,1.9237 l 0.72636,0.0713 c 1.06892,0.11395 1.32539,0.4131 1.32539,0.95462 0,0.61277 -0.49883,1.04034 -1.49613,1.04034 -0.82656,0 -1.59597,-0.3422 -2.1089,-0.78423 -0.0568,-0.0568 -0.14288,-0.0568 -0.19968,0 l -0.5842,0.62724 c -0.0568,0.0572 -0.0568,0.14253 0,0.19968 0.55563,0.48436 1.49613,1.02587 2.82152,1.02587 m -8.33578,-4.16101 c -0.0568,0 -0.0854,-0.0282 -0.0854,-0.0854 0,-0.31327 0.0286,-0.55563 0.0998,-0.76906 0.22789,-0.68439 0.79763,-1.06892 1.56739,-1.06892 0.76941,0 1.33915,0.38453 1.56739,1.06892 0.0713,0.21343 0.0998,0.45579 0.0998,0.76906 0,0.0572 -0.0286,0.0854 -0.0857,0.0854 z m 1.65311,4.16101 c 1.19662,0 2.12302,-0.48471 2.66418,-1.1684 0.0572,-0.0713 0.0572,-0.14252 -0.0141,-0.19967 l -0.5842,-0.5274 c -0.0713,-0.0568 -0.14253,-0.0427 -0.21343,0.0286 -0.37042,0.42792 -0.94086,0.7553 -1.75296,0.7553 -0.84067,0 -1.45344,-0.39864 -1.72402,-1.18252 -0.0713,-0.22824 -0.11395,-0.45614 -0.11395,-0.82656 0,-0.0568 0.0286,-0.0854 0.0854,-0.0854 h 4.3173 c 0.0998,0 0.15698,-0.0568 0.15698,-0.14252 0,-1.04034 -0.0713,-1.51024 -0.21378,-1.95227 -0.38488,-1.1684 -1.36807,-1.83833 -2.67864,-1.83833 -1.29681,0 -2.29447,0.65582 -2.679,1.83833 -0.14252,0.41345 -0.21378,0.9405 -0.21378,1.72402 0,0.78388 0.0854,1.2827 0.22789,1.72403 0.37042,1.18286 1.35397,1.85279 2.73615,1.85279 m -3.78601,-0.15664 c 0.0854,0 0.12806,-0.0854 0.0854,-0.14287 l -2.52201,-4.10351 2.09444,-2.43664 c 0.0572,-0.0713 0.0286,-0.14252 -0.0568,-0.14252 h -1.05446 c -0.0998,0 -0.17109,0.0282 -0.25646,0.12806 l -2.69311,3.17747 v -6.02686 c 0,-0.0857 -0.0572,-0.14252 -0.14252,-0.14252 h -0.91196 c -0.0854,0 -0.14253,0.0568 -0.14253,0.14252 v 9.404 c 0,0.0857 0.0572,0.14287 0.14253,0.14287 h 0.91193 c 0.0854,0 0.14252,-0.0572 0.14252,-0.14287 v -1.79529 l 1.18251,-1.38218 1.93781,3.17747 c 0.0575,0.10019 0.12876,0.14287 0.22825,0.14287 z m -7.17726,0.0713 c 0.0854,0 0.14252,-0.0571 0.14252,-0.14252 v -0.82655 c 0,-0.0854 -0.0572,-0.14253 -0.14252,-0.14253 h -0.27059 c -0.4706,0 -0.68403,-0.18521 -0.68403,-0.7553 v -7.75123 c 0,-0.0857 -0.0571,-0.14252 -0.14252,-0.14252 h -0.91194 c -0.0857,0 -0.14287,0.0568 -0.14287,0.14252 v 7.82285 c 0,1.2252 0.47061,1.79528 1.66723,1.79528 z m -6.71973,-1.02622 c -0.75529,0 -1.31092,-0.38453 -1.53881,-1.06857 -0.11395,-0.37042 -0.15664,-0.74083 -0.15664,-1.39665 0,-0.65511 0.0427,-1.01141 0.15664,-1.38183 0.22789,-0.68403 0.78352,-1.06891 1.53881,-1.06891 0.75495,0 1.31058,0.38488 1.53882,1.06891 0.1143,0.37042 0.15699,0.72672 0.15699,1.38183 0,0.65582 -0.0427,1.02623 -0.15699,1.39665 -0.22824,0.68404 -0.78387,1.06857 -1.53882,1.06857 m 0,1.1116 c 1.32504,0 2.32234,-0.68404 2.69276,-1.83798 0.15698,-0.4706 0.22824,-0.9405 0.22824,-1.73884 0,-0.78352 -0.0713,-1.25377 -0.22824,-1.72402 -0.37042,-1.1684 -1.36772,-1.83833 -2.69276,-1.83833 -1.32503,0 -2.32268,0.66993 -2.6931,1.83833 -0.15663,0.47025 -0.2279,0.9405 -0.2279,1.72402 0,0.79834 0.0713,1.26824 0.2279,1.73884 0.37042,1.15394 1.36807,1.83798 2.6931,1.83798 m -6.5405,-0.15664 c 0.0857,0 0.14253,-0.0572 0.1711,-0.14287 l 3.12068,-9.37578 c 0.0427,-0.11394 -0.0141,-0.17074 -0.10019,-0.17074 h -0.98284 c -0.0998,0 -0.15664,0.0427 -0.18521,0.14252 l -2.39395,7.48066 h -0.0286 l -2.47932,-7.48066 c -0.0282,-0.0998 -0.0854,-0.14252 -0.19932,-0.14252 h -0.96908 c -0.0854,0 -0.14252,0.0568 -0.0998,0.17074 l 3.13479,9.37578 c 0.0286,0.0857 0.0857,0.14287 0.1711,0.14287 z m -8.89352,0 c 0.0857,0 0.14252,-0.0572 0.14252,-0.14287 v -4.27461 c 0,-1.55293 -0.88371,-2.56505 -2.36502,-2.56505 -0.9264,0 -1.58186,0.39899 -1.90994,0.9264 h -0.0141 v -0.62689 c 0,-0.0857 -0.0572,-0.14252 -0.14252,-0.14252 h -0.91158 c -0.0857,0 -0.14252,0.0568 -0.14252,0.14252 v 6.54015 c 0,0.0857 0.0568,0.14287 0.14252,0.14287 H 141.17 c 0.0854,0 0.14252,-0.0572 0.14252,-0.14287 v -4.06083 c 0,-1.01176 0.64135,-1.66722 1.56739,-1.66722 1.02623,0 1.52471,0.64135 1.52471,1.73848 v 3.98957 c 0,0.0857 0.0571,0.14287 0.14252,0.14287 z m -11.47763,-4.00438 c -0.0568,0 -0.0854,-0.0282 -0.0854,-0.0854 0,-0.31326 0.0286,-0.55562 0.0998,-0.76905 0.22789,-0.68439 0.79763,-1.06892 1.56739,-1.06892 0.76906,0 1.3395,0.38453 1.56739,1.06892 0.0713,0.21343 0.0998,0.45579 0.0998,0.76905 0,0.0572 -0.0286,0.0854 -0.0857,0.0854 z m 1.65312,4.16102 c 1.19662,0 2.12302,-0.48472 2.66418,-1.1684 0.0571,-0.0713 0.0571,-0.14253 -0.0141,-0.19968 l -0.5842,-0.5274 c -0.0713,-0.0568 -0.14252,-0.0427 -0.21379,0.0286 -0.37006,0.42792 -0.9405,0.7553 -1.7526,0.7553 -0.84067,0 -1.45344,-0.39864 -1.72402,-1.18251 -0.0713,-0.22825 -0.11395,-0.45614 -0.11395,-0.82656 0,-0.0568 0.0286,-0.0854 0.0854,-0.0854 h 4.3173 c 0.0998,0 0.15663,-0.0568 0.15663,-0.14252 0,-1.04035 -0.0709,-1.51025 -0.21343,-1.95228 -0.38488,-1.1684 -1.36772,-1.83832 -2.67864,-1.83832 -1.29681,0 -2.29447,0.65581 -2.67899,1.83832 -0.14253,0.41346 -0.21379,0.94051 -0.21379,1.72403 0,0.78387 0.0854,1.2827 0.2279,1.72402 0.37041,1.18287 1.35396,1.85279 2.73614,1.85279 m -4.73216,-0.15663 c 0.0854,0 0.14252,-0.0572 0.14252,-0.14288 v -4.2746 c 0,-1.55293 -0.88371,-2.56505 -2.36573,-2.56505 -0.92604,0 -1.5815,0.39899 -1.90923,0.92639 h -0.0141 v -3.49073 c 0,-0.0857 -0.0571,-0.14252 -0.14253,-0.14252 h -0.91192 c -0.0857,0 -0.14253,0.0568 -0.14253,0.14252 v 9.40399 c 0,0.0857 0.0568,0.14288 0.14253,0.14288 h 0.91192 c 0.0854,0 0.14253,-0.0572 0.14253,-0.14288 v -4.06082 c 0,-1.01177 0.64135,-1.66723 1.56739,-1.66723 1.02588,0 1.52471,0.64135 1.52471,1.73849 v 3.98956 c 0,0.0857 0.0568,0.14288 0.14252,0.14288 z m -12.14759,-3.42019 c 0,0.76976 0.0857,1.32539 0.21378,1.73884 0.38488,1.18251 1.38219,1.83797 2.69311,1.83797 1.04034,0 1.83832,-0.44203 2.3368,-1.15429 0.0427,-0.0713 0.0427,-0.12805 -0.0427,-0.19931 l -0.62688,-0.5133 c -0.0713,-0.0564 -0.14253,-0.0564 -0.19932,0.0141 -0.39899,0.49919 -0.78387,0.74119 -1.46791,0.74119 -0.74048,0 -1.29646,-0.35595 -1.52435,-1.06856 -0.1143,-0.35631 -0.15699,-0.78352 -0.15699,-1.39665 0,-0.59831 0.0427,-1.02553 0.15699,-1.38183 0.22789,-0.71261 0.78387,-1.06892 1.52435,-1.06892 0.68404,0 1.06892,0.24236 1.46791,0.74084 0.0568,0.0713 0.12806,0.0713 0.19932,0.0145 l 0.62688,-0.51294 c 0.0854,-0.0713 0.0854,-0.12841 0.0427,-0.19967 -0.49847,-0.71261 -1.29646,-1.15429 -2.3368,-1.15429 -1.31092,0 -2.30822,0.65581 -2.6931,1.83832 -0.12806,0.41346 -0.21379,0.96908 -0.21379,1.72403 m -4.0647,3.57681 c 1.78082,0 2.7499,-0.89782 2.7499,-2.23732 0,-1.09678 -0.66992,-1.79528 -2.05211,-1.92369 l -0.71226,-0.0709 c -1.01176,-0.0998 -1.33949,-0.38488 -1.33949,-0.9264 0,-0.55562 0.44167,-0.9405 1.29681,-0.9405 0.69814,0 1.39629,0.27093 1.83797,0.55562 0.0713,0.0427 0.14252,0.0427 0.19967,-0.0282 l 0.48436,-0.61277 c 0.0427,-0.0713 0.0427,-0.15664 -0.0286,-0.19932 -0.56973,-0.42792 -1.42486,-0.75565 -2.42217,-0.75565 -1.61007,0 -2.53647,0.78422 -2.53647,2.08068 0,1.11125 0.69815,1.78117 2.03764,1.9237 l 0.72673,0.0713 c 1.06856,0.11395 1.32538,0.4131 1.32538,0.95461 0,0.61278 -0.49918,1.04035 -1.49613,1.04035 -0.82691,0 -1.59596,-0.3422 -2.10925,-0.78423 -0.0572,-0.0568 -0.14253,-0.0568 -0.19932,0 l -0.5842,0.62724 c -0.0571,0.0572 -0.0571,0.14252 0,0.19967 0.55562,0.48437 1.49613,1.02588 2.82151,1.02588 m -4.27496,-0.0854 c 0.0854,0 0.14252,-0.0571 0.14252,-0.14252 V 149.423 c 0,-0.0854 -0.0571,-0.14252 -0.14252,-0.14252 H 110.116 c -0.61278,0 -0.86925,-0.18521 -0.86925,-0.86925 v -3.8615 c 0,-0.0572 0.0282,-0.0854 0.0854,-0.0854 h 1.08303 c 0.0854,0 0.14252,-0.0572 0.14252,-0.14252 v -0.68404 c 0,-0.0857 -0.0571,-0.14252 -0.14252,-0.14252 h -1.08303 c -0.0571,0 -0.0854,-0.0286 -0.0854,-0.0857 v -1.92335 c 0,-0.0857 -0.0572,-0.14252 -0.14252,-0.14252 h -0.91193 c -0.0857,0 -0.14252,0.0568 -0.14252,0.14252 v 1.92335 c 0,0.0572 -0.0286,0.0857 -0.0857,0.0857 h -0.56974 c -0.0854,0 -0.14252,0.0568 -0.14252,0.14252 v 0.68404 c 0,0.0854 0.0572,0.14252 0.14252,0.14252 h 0.56974 c 0.0572,0 0.0857,0.0282 0.0857,0.0854 v 3.90419 c 0,1.3395 0.51294,1.93816 1.83832,1.93816 z m -4.75474,-0.0713 c 0.0854,0 0.14252,-0.0572 0.14252,-0.14287 v -6.54015 c 0,-0.0857 -0.0571,-0.14252 -0.14252,-0.14252 h -0.91228 c -0.0854,0 -0.14217,0.0568 -0.14217,0.14252 v 4.04671 c 0,1.02623 -0.61278,1.68134 -1.53917,1.68134 -1.01141,0 -1.51024,-0.641 -1.51024,-1.7526 v -3.97545 c 0,-0.0857 -0.0571,-0.14252 -0.14252,-0.14252 h -0.91193 c -0.0854,0 -0.14217,0.0568 -0.14217,0.14252 v 4.2605 c 0,1.55328 0.86889,2.57915 2.36502,2.57915 0.88371,0 1.51059,-0.37077 1.86655,-0.9405 h 0.0145 v 0.641 c 0,0.0857 0.0568,0.14287 0.14217,0.14287 z m -11.342162,-4.00438 c -0.05715,0 -0.08572,-0.0282 -0.08572,-0.0854 0,-0.31326 0.02858,-0.55562 0.09984,-0.76905 0.227893,-0.68439 0.797631,-1.06892 1.567391,-1.06892 0.769409,0 1.339498,0.38453 1.567392,1.06892 0.07126,0.21343 0.09984,0.45579 0.09984,0.76905 0,0.0572 -0.02858,0.0854 -0.08537,0.0854 z m 1.652763,4.16102 c 1.196975,0 2.123016,-0.48472 2.664883,-1.1684 0.0568,-0.0713 0.0568,-0.14253 -0.01447,-0.19968 l -0.5842,-0.5274 c -0.07126,-0.0568 -0.142523,-0.0427 -0.213783,0.0286 -0.370417,0.42792 -0.940507,0.7553 -1.7526,0.7553 -0.841023,0 -1.453446,-0.39864 -1.72438,-1.18251 -0.07126,-0.22825 -0.113945,-0.45614 -0.113945,-0.82656 0,-0.0568 0.02858,-0.0854 0.08573,-0.0854 h 4.317645 c 0.09948,0 0.156634,-0.0568 0.156634,-0.14252 0,-1.04034 -0.07126,-1.51024 -0.213784,-1.95228 -0.384878,-1.1684 -1.36807,-1.83832 -2.678993,-1.83832 -1.29681,0 -2.294115,0.65581 -2.678994,1.83832 -0.142523,0.41346 -0.213783,0.94051 -0.213783,1.72403 0,0.78387 0.08572,1.2827 0.228245,1.72402 0.370417,1.18287 1.353609,1.85279 2.735792,1.85279 m -7.507817,-1.1116 c -0.755295,0 -1.268235,-0.37042 -1.496483,-1.04034 -0.113945,-0.35595 -0.156633,-0.79763 -0.156633,-1.42487 0,-0.61242 0.04269,-1.0541 0.156633,-1.42452 0.228248,-0.66992 0.741188,-1.02623 1.496483,-1.02623 0.755298,0 1.282348,0.3422 1.510242,1.02623 0.113948,0.34184 0.156633,0.74084 0.156633,1.42452 0,0.68439 -0.04269,1.09749 -0.156633,1.42487 -0.227894,0.68439 -0.754944,1.04034 -1.510242,1.04034 m 2.721682,0.95497 c 0.08537,0 0.142523,-0.0572 0.142523,-0.14287 v -9.404 c 0,-0.0857 -0.05715,-0.14252 -0.142523,-0.14252 h -0.912292 c -0.08537,0 -0.142523,0.0568 -0.142523,0.14252 v 3.5052 h -0.0141 c -0.327731,-0.54187 -0.911577,-0.94086 -1.937808,-0.94086 -1.182865,0 -2.009069,0.55598 -2.350911,1.63865 -0.185562,0.54187 -0.242712,1.08338 -0.242712,1.9237 0,0.85513 0.05715,1.39665 0.242712,1.93816 0.341842,1.08268 1.168046,1.63865 2.350911,1.63865 1.026231,0 1.610077,-0.41345 1.937808,-0.95461 h 0.0141 v 0.65511 c 0,0.0857 0.05715,0.14287 0.142523,0.14287 z m -13.396392,0.15664 c 1.781175,0 2.749902,-0.89782 2.749902,-2.23732 0,-1.09678 -0.66957,-1.79528 -2.051753,-1.9237 l -0.712611,-0.0709 c -1.011414,-0.0998 -1.339146,-0.38488 -1.339146,-0.92639 0,-0.55563 0.44168,-0.94051 1.296458,-0.94051 0.6985,0 1.396649,0.27094 1.838325,0.55563 0.07126,0.0427 0.142524,0.0427 0.199674,-0.0282 l 0.484362,-0.61278 c 0.04269,-0.0713 0.04269,-0.15663 -0.02857,-0.19932 -0.569736,-0.42792 -1.424869,-0.75565 -2.422523,-0.75565 -1.610079,0 -2.536121,0.78423 -2.536121,2.08068 0,1.11125 0.698148,1.78118 2.037646,1.9237 l 0.726721,0.0713 c 1.068565,0.11395 1.325033,0.41311 1.325033,0.95462 0,0.61277 -0.498827,1.04034 -1.496129,1.04034 -0.826558,0 -1.595614,-0.34219 -2.108906,-0.78422 -0.05715,-0.0568 -0.142523,-0.0568 -0.199673,0 l -0.583846,0.62724 c -0.05715,0.0571 -0.05715,0.14252 0,0.19967 0.555625,0.48436 1.496129,1.02588 2.821162,1.02588 m -8.5979,-4.16102 c -0.05715,0 -0.08537,-0.0282 -0.08537,-0.0854 0,-0.31327 0.02822,-0.55562 0.09948,-0.76906 0.227894,-0.68439 0.798336,-1.06891 1.567392,-1.06891 0.76976,0 1.339495,0.38452 1.567392,1.06891 0.07126,0.21344 0.09983,0.45579 0.09983,0.76906 0,0.0572 -0.02857,0.0854 -0.08537,0.0854 z m 1.652765,4.16102 c 1.196975,0 2.123017,-0.48472 2.664884,-1.1684 0.0568,-0.0713 0.0568,-0.14253 -0.01447,-0.19968 l -0.5842,-0.5274 c -0.07126,-0.0568 -0.142521,-0.0427 -0.213783,0.0286 -0.370417,0.42792 -0.940152,0.7553 -1.7526,0.7553 -0.840669,0 -1.453444,-0.39864 -1.724025,-1.18251 -0.07126,-0.22825 -0.113946,-0.45615 -0.113946,-0.82656 0,-0.0568 0.02822,-0.0854 0.08537,-0.0854 h 4.317648 c 0.09983,0 0.156633,-0.0568 0.156633,-0.14252 0,-1.04035 -0.07126,-1.51025 -0.213783,-1.95228 -0.384527,-1.1684 -1.367719,-1.83832 -2.678994,-1.83832 -1.296458,0 -2.293763,0.65581 -2.678996,1.83832 -0.142169,0.41346 -0.213429,0.94051 -0.213429,1.72403 0,0.78387 0.08537,1.2827 0.227894,1.72402 0.370768,1.18287 1.353608,1.85279 2.735791,1.85279 m -7.507816,-1.1116 c -0.754944,0 -1.267884,-0.37042 -1.496132,-1.04034 -0.113945,-0.35596 -0.156633,-0.79763 -0.156633,-1.42487 0,-0.61242 0.04269,-1.0541 0.156633,-1.42452 0.228248,-0.66992 0.741188,-1.02623 1.496132,-1.02623 0.755298,0 1.282348,0.3422 1.510241,1.02623 0.1143,0.34184 0.156986,0.74083 0.156986,1.42452 0,0.68439 -0.04269,1.09749 -0.156986,1.42487 -0.227893,0.68439 -0.754943,1.04034 -1.510241,1.04034 m 2.721681,0.95497 c 0.08537,0 0.142521,-0.0572 0.142521,-0.14288 v -9.40399 c 0,-0.0857 -0.05715,-0.14252 -0.142521,-0.14252 h -0.911579 c -0.08573,0 -0.142875,0.0568 -0.142875,0.14252 v 3.5052 h -0.01447 c -0.327732,-0.54187 -0.91158,-0.94086 -1.937809,-0.94086 -1.182864,0 -2.009071,0.55598 -2.350912,1.63865 -0.185209,0.54187 -0.242004,1.08338 -0.242004,1.9237 0,0.85513 0.0568,1.39665 0.242004,1.93816 0.341841,1.08268 1.168048,1.63865 2.350912,1.63865 1.026229,0 1.610077,-0.41345 1.937809,-0.95461 h 0.01447 v 0.6551 c 0,0.0857 0.05715,0.14288 0.142875,0.14288 h 0.911579"
       style="fill:#989898;fill-opacity:1;fill-rule:nonzero;stroke:none;stroke-width:0.35277775"
       id="path58" />
  </g>
</svg>
